<?xml version="1.0" standalone="no"?><!DOCTYPE svg PUBLIC "-//W3C//DTD SVG 1.1//EN" "http://www.w3.org/Graphics/SVG/1.1/DTD/svg11.dtd"><svg t="1555407793486" class="icon" style="" viewBox="0 0 1024 1024" version="1.1" xmlns="http://www.w3.org/2000/svg" p-id="4824" xmlns:xlink="http://www.w3.org/1999/xlink" width="200" height="200"><defs><style type="text/css"></style></defs><path d="M463.872 143.872H160.256c-8.704 0-15.872 7.168-15.872 15.872v304.128c0 8.704 7.168 15.872 15.872 15.872h304.128c8.704 0 15.872-7.168 15.872-15.872V160.256c0-9.216-7.68-16.384-16.384-16.384zM412.16 412.16H211.968V211.968h200.192v200.192z m452.096-268.288h-304.128c-8.704 0-15.872 7.168-15.872 15.872v304.128c0 8.704 7.168 15.872 15.872 15.872h304.128c8.704 0 15.872-7.168 15.872-15.872V160.256c0-9.216-7.168-16.384-15.872-16.384z m-52.224 268.288h-200.192V211.968h200.192v200.192z m-348.16 132.096H160.256c-8.704 0-15.872 7.168-15.872 15.872v304.128c0 8.704 7.168 15.872 15.872 15.872h304.128c8.704 0 15.872-7.168 15.872-15.872v-304.128c0-8.704-7.68-15.872-16.384-15.872z m-51.712 267.776H211.968v-200.192h200.192v200.192z m452.096-267.776h-304.128c-8.704 0-15.872 7.168-15.872 15.872v304.128c0 8.704 7.168 15.872 15.872 15.872h304.128c8.704 0 15.872-7.168 15.872-15.872v-304.128c0-8.704-7.168-15.872-15.872-15.872z" fill="" p-id="4825"></path></svg>