<?xml version="1.0" standalone="no"?><!DOCTYPE svg PUBLIC "-//W3C//DTD SVG 1.1//EN" "http://www.w3.org/Graphics/SVG/1.1/DTD/svg11.dtd"><svg t="1555407916943" class="icon" style="" viewBox="0 0 1024 1024" version="1.1" xmlns="http://www.w3.org/2000/svg" p-id="6887" xmlns:xlink="http://www.w3.org/1999/xlink" width="200" height="200"><defs><style type="text/css"></style></defs><path d="M835.61 1024H669.5l353.49-352.47v166.1q-2.03 79.01-54.7 131.68-52.67 52.66-132.68 54.69z m0-1021.97q80.01 2.02 132.68 54.69 52.67 52.67 54.7 132.68v98.25L737.36 2.03h98.25z m-59.76 370.7q0 51.66-17.73 96.73-17.73 45.07-49.13 79.51l-8.1 6.08q-59.76 65.83-105.84 144.33-46.09 78.5-75.46 166.61-3.04 4.06-10.13 4.06-7.09 0-10.13-4.06-59.76-175.22-182.32-310.94l-10.12-11.14 3.03 3.03q-31.39-35.45-49.63-80.52-18.24-45.07-18.24-95.71 0-43.56 12.66-81.54 12.66-37.98 33.93-69.38 37.48-52.67 93.69-83.05 56.21-30.39 124.58-30.39T632 136.74q56.72 30.38 92.17 83.05 51.66 66.85 51.66 152.94zM483.13 259.29h-33.42v61.79h-39.5q-29.38 1.01-50.14 20.76T338.29 394v15.19q0 30.39 20.26 51.16 20.26 20.76 51.66 21.77h67.86v-3.04h3.04V259.29h2.02z m179.28 64.82h-36.46v126.61h-41.53q-12.15 0-21.27-8.61t-10.13-22.79v-98.24H519.6v111.41q0 20.26 13.67 34.44 13.67 14.18 35.96 15.19h93.18V324.11z m-280.56 85.08V394q1.01-16.2 10.63-26.33 9.62-10.13 25.83-10.13h31.4v91.16h-31.4q-16.21-3.04-25.83-13.17-9.62-10.13-10.63-26.34zM283.6 212.7q-28.36 42.54-41.53 90.14L29.37 88.12q26.34-39.5 66.86-63.81Q136.75 0 187.38 0h311.96l108.38 108.38q-47.61-18.24-98.25-18.24-70.9 3.04-129.65 34.95Q321.07 157 283.6 212.7z m21.27 339.31l7.09 8.1q42.54 44.57 77.99 98.25L65.84 977.41q-29.38-25.32-47.11-61.28-17.72-35.96-17.72-78.5V219.79l254.23 254.23q18.23 42.54 49.63 77.99z m482.12-184.34q-2.02-54.7-18.23-101.29l249.16 249.17-280.56 282.58-119.52-119.51q39.51-60.78 91.16-118.51l8.1-8.1q31.4-37.48 50.14-84.58 18.74-47.09 19.75-99.76zM499.34 881.19q3.04 5.06 10.13 5.06 7.09 0 10.13-5.06 17.22-50.65 41.52-101.29l96.23 96.22L509.47 1024H187.38q-23.3-1.01-43.55-5.06l290.69-290.69q39.5 74.95 64.82 152.94z m276.51-508.46q0 51.66-17.73 96.73-17.73 45.07-49.13 79.51l-8.1 6.08q-59.76 65.83-105.84 144.33-46.09 78.5-75.46 166.61-3.04 4.06-10.13 4.06-7.09 0-10.13-4.06-59.76-175.22-182.32-310.94l-10.12-11.14 3.03 3.03q-31.39-35.45-49.63-80.52-18.24-45.07-18.24-95.71 0-43.56 12.66-81.54 12.66-37.98 33.93-69.38 37.48-52.67 93.69-83.05 56.21-30.39 124.58-30.39T632 136.74q56.72 30.38 92.17 83.05 51.66 66.85 51.66 152.94zM483.13 259.29h-33.42v61.79h-39.5q-29.38 1.01-50.14 20.76T338.29 394v15.19q0 30.39 20.26 51.16 20.26 20.76 51.66 21.77h67.86v-3.04h3.04V259.29h2.02z m179.28 64.82h-36.46v126.61h-41.53q-12.15 0-21.27-8.61t-10.13-22.79v-98.24H519.6v111.41q0 20.26 13.67 34.44 13.67 14.18 35.96 15.19h93.18V324.11z m-280.56 85.08V394q1.01-16.2 10.63-26.33 9.62-10.13 25.83-10.13h31.4v91.16h-31.4q-16.21-3.04-25.83-13.17-9.62-10.13-10.63-26.34zM835.61 2.03q80.01 2.02 132.68 54.69 52.67 52.67 54.7 132.68v98.25L737.36 2.03h98.25zM283.6 212.7q-28.36 42.54-41.53 90.14L29.37 88.12q26.34-39.5 66.86-63.81Q136.75 0 187.38 0h311.96l108.38 108.38q-47.61-18.24-98.25-18.24-70.9 3.04-129.65 34.95Q321.07 157 283.6 212.7z m503.39 154.97q-2.02-54.7-18.23-101.29l249.16 249.17-280.56 282.58-119.52-119.51q39.51-60.78 91.16-118.51l8.1-8.1q31.4-37.48 50.14-84.58 18.74-47.09 19.75-99.76z" p-id="6888"></path></svg>