<?xml version="1.0" standalone="no"?><!DOCTYPE svg PUBLIC "-//W3C//DTD SVG 1.1//EN" "http://www.w3.org/Graphics/SVG/1.1/DTD/svg11.dtd"><svg t="1555407729534" class="icon" style="" viewBox="0 0 1024 1024" version="1.1" xmlns="http://www.w3.org/2000/svg" p-id="4103" xmlns:xlink="http://www.w3.org/1999/xlink" width="200" height="200"><defs><style type="text/css"></style></defs><path d="M195.828 466.84h212.111l48.61 128.151h79.541L346.071 108.899h-88.378L67.674 599.408h79.541l48.61-132.569z m88.379-247.47c4.421-13.255 8.839-26.511 13.259-44.187h4.421c0 4.417 4.417 13.257 13.255 35.349 0 4.421 4.421 8.837 4.421 8.837 0 4.421 26.511 66.287 70.704 190.019H213.505c48.608-123.732 70.704-185.598 70.704-190.019z m0 0zM544.929 294.496h406.549v61.866H544.929v-61.866z m0 0zM67.676 661.275h883.802v61.866H67.676v-61.866z m0 0zM544.929 480.091h406.549v61.866H544.929v-61.866z m0 0zM67.676 842.453h883.802v61.866H67.676v-61.866z m0 0zM544.929 113.32h406.549v61.865H544.929V113.32z m0 0z" p-id="4104"></path></svg>